<svg width="24" height="24" viewBox="0 0 24 24" fill="none" xmlns="http://www.w3.org/2000/svg">
  <title>Airplane depart (outlined)</title>
  <g transform="matrix(
          1 0
          0 1
          0 0.9000244140625
        )"><path fill-rule="evenodd" clip-rule="evenodd" d="M 23.60009765625 4.4000244140625 C 24.5 6.300048828125 23.69970703125 8.5999755859375 21.7998046875 9.5 L 4.39990234375 18 L 0 9.300048828125 L 2.60009765625 8.2000732421875 L 4.60009765625 9.2000732421875 L 7.60009765625 7.7000732421875 L 4.60009765625 1.7000732421875 L 8.10009765625 0 L 15.2001953125 4 L 18.2001953125 2.5 C 20.2001953125 1.5 22.7001953125 2.300048828125 23.60009765625 4.4000244140625 Z M 9.2998046875 3.9000244140625 L 11.7998046875 9 L 5.10009765625 12.4000244140625 L 6 14.0999755859375 L 20.60009765625 6.800048828125 C 21 6.5999755859375 21.2001953125 6.0999755859375 21 5.5999755859375 C 20.7998046875 5.0999755859375 20.2001953125 4.9000244140625 19.7001953125 5.0999755859375 L 15.2998046875 7.300048828125 L 9.2998046875 3.9000244140625 Z M 0 20.0999755859375 L 24 20.0999755859375 L 24 23.0999755859375 L 0 23.0999755859375 L 0 20.0999755859375 Z" fill="currentColor"/></g>
</svg>