<!-- Generated by IcoMoon.io -->
<svg version="1.1" xmlns="http://www.w3.org/2000/svg" width="300" height="300" viewBox="0 0 300 300">
<title>instagram</title>
<path d="M150 27.012c40.078 0 44.824 0.176 60.586 0.879 14.648 0.645 22.559 3.105 27.832 5.156 6.973 2.695 12.012 5.977 17.227 11.191 5.273 5.273 8.496 10.254 11.25 17.227 2.051 5.273 4.512 13.242 5.156 27.832 0.703 15.82 0.879 20.566 0.879 60.586s-0.176 44.824-0.879 60.586c-0.645 14.648-3.105 22.559-5.156 27.832-2.695 6.973-5.977 12.012-11.191 17.227-5.273 5.273-10.254 8.496-17.227 11.25-5.273 2.051-13.242 4.512-27.832 5.156-15.82 0.703-20.566 0.879-60.586 0.879s-44.824-0.176-60.586-0.879c-14.648-0.645-22.559-3.105-27.832-5.156-6.973-2.695-12.012-5.977-17.227-11.191-5.273-5.273-8.496-10.254-11.25-17.227-2.051-5.273-4.512-13.242-5.156-27.832-0.703-15.82-0.879-20.566-0.879-60.586s0.176-44.824 0.879-60.586c0.645-14.648 3.105-22.559 5.156-27.832 2.695-6.973 5.977-12.012 11.191-17.227 5.273-5.273 10.254-8.496 17.227-11.25 5.273-2.051 13.242-4.512 27.832-5.156 15.762-0.703 20.508-0.879 60.586-0.879zM150 0c-40.723 0-45.82 0.176-61.816 0.879-15.938 0.703-26.895 3.281-36.387 6.973-9.902 3.867-18.281 8.965-26.602 17.344-8.379 8.32-13.477 16.699-17.344 26.543-3.691 9.551-6.27 20.449-6.973 36.387-0.703 16.055-0.879 21.152-0.879 61.875s0.176 45.82 0.879 61.816c0.703 15.938 3.281 26.895 6.973 36.387 3.867 9.902 8.965 18.281 17.344 26.602 8.32 8.32 16.699 13.477 26.543 17.285 9.551 3.691 20.449 6.27 36.387 6.973 15.996 0.703 21.094 0.879 61.816 0.879s45.82-0.176 61.816-0.879c15.937-0.703 26.895-3.281 36.387-6.973 9.844-3.809 18.223-8.965 26.543-17.285s13.477-16.699 17.285-26.543c3.691-9.551 6.27-20.449 6.973-36.387 0.703-15.996 0.879-21.094 0.879-61.816s-0.176-45.82-0.879-61.816c-0.703-15.938-3.281-26.895-6.973-36.387-3.691-9.961-8.789-18.34-17.168-26.66-8.32-8.32-16.699-13.477-26.543-17.285-9.551-3.691-20.449-6.27-36.387-6.973-16.055-0.762-21.152-0.938-61.875-0.938v0z"></path>
<path d="M150 72.949c-42.539 0-77.051 34.512-77.051 77.051s34.512 77.051 77.051 77.051 77.051-34.512 77.051-77.051c0-42.539-34.512-77.051-77.051-77.051zM150 199.98c-27.598 0-49.98-22.383-49.98-49.98s22.383-49.98 49.98-49.98c27.598 0 49.98 22.383 49.98 49.98s-22.383 49.98-49.98 49.98z"></path>
<path d="M248.086 69.902c0 9.935-8.054 17.988-17.988 17.988s-17.988-8.054-17.988-17.988c0-9.935 8.054-17.988 17.988-17.988s17.988 8.054 17.988 17.988z"></path>
</svg>
