<!-- Generated by IcoMoon.io -->
<svg version="1.1" xmlns="http://www.w3.org/2000/svg" width="300" height="300" viewBox="0 0 300 300">
<title>linkedin</title>
<path d="M271.875 0h-243.75c-15.469 0-28.125 12.656-28.125 28.125v243.75c0 15.469 12.656 28.125 28.125 28.125h243.75c15.469 0 28.125-12.656 28.125-28.125v-243.75c0-15.469-12.656-28.125-28.125-28.125zM112.5 243.75h-37.5v-131.25h37.5v131.25zM93.75 93.75c-10.371 0-18.75-8.379-18.75-18.75s8.379-18.75 18.75-18.75c10.371 0 18.75 8.379 18.75 18.75s-8.379 18.75-18.75 18.75zM243.75 243.75h-37.5v-75c0-10.371-8.379-18.75-18.75-18.75s-18.75 8.379-18.75 18.75v75h-37.5v-131.25h37.5v23.262c7.734-10.605 19.57-23.262 32.813-23.262 23.32 0 42.188 20.977 42.188 46.875v84.375z"></path>
</svg>
