<!-- Generated by IcoMoon.io -->
<svg version="1.1" xmlns="http://www.w3.org/2000/svg" width="300" height="300" viewBox="0 0 300 300">
<title>twitter</title>
<path d="M300 66.328c-11.016 4.922-22.91 8.203-35.332 9.668 12.715-7.617 22.441-19.688 27.070-34.043-11.895 7.031-25.078 12.187-39.082 14.941-11.25-11.953-27.246-19.395-44.941-19.395-33.984 0-61.523 27.539-61.523 61.523 0 4.805 0.527 9.492 1.582 14.004-51.152-2.578-96.504-27.070-126.855-64.336-5.273 9.082-8.32 19.688-8.32 30.937 0 21.328 10.84 40.195 27.363 51.211-10.078-0.293-19.57-3.105-27.891-7.676 0 0.234 0 0.527 0 0.762 0 29.824 21.211 54.727 49.395 60.352-5.156 1.406-10.605 2.168-16.23 2.168-3.984 0-7.793-0.41-11.602-1.113 7.852 24.434 30.586 42.246 57.48 42.773-21.094 16.523-47.578 26.367-76.465 26.367-4.98 0-9.844-0.293-14.707-0.879 27.305 17.52 59.648 27.656 94.395 27.656 113.203 0 175.137-93.809 175.137-175.137 0-2.695-0.059-5.332-0.176-7.969 12.012-8.613 22.441-19.453 30.703-31.816z"></path>
</svg>
