<!-- Generated by IcoMoon.io -->
<svg version="1.1" xmlns="http://www.w3.org/2000/svg" width="300" height="300" viewBox="0 0 300 300">
<title>youtube</title>
<path d="M297.012 90c0 0-2.93-20.684-11.953-29.766-11.426-11.953-24.199-12.012-30.059-12.715-41.953-3.047-104.941-3.047-104.941-3.047h-0.117c0 0-62.988 0-104.941 3.047-5.859 0.703-18.633 0.762-30.059 12.715-9.023 9.082-11.895 29.766-11.895 29.766s-2.988 24.258-2.988 48.574v22.734c0 24.258 2.988 48.574 2.988 48.574s2.93 20.684 11.895 29.766c11.426 11.953 26.426 11.543 33.105 12.832 24.023 2.285 102.012 2.988 102.012 2.988s63.047-0.117 105-3.105c5.859-0.703 18.633-0.762 30.059-12.715 9.023-9.082 11.953-29.766 11.953-29.766s2.988-24.258 2.988-48.574v-22.734c-0.059-24.258-3.047-48.574-3.047-48.574zM119.004 188.906v-84.316l81.035 42.305-81.035 42.012z"></path>
</svg>
